<svg width="22" height="22" viewBox="0 0 22 22" fill="none" xmlns="http://www.w3.org/2000/svg">
<path d="M10.9375 6.875C10.1217 6.875 9.32413 7.11693 8.64577 7.57019C7.96742 8.02345 7.43871 8.66769 7.1265 9.42143C6.81429 10.1752 6.7326 11.0046 6.89176 11.8047C7.05093 12.6049 7.44379 13.3399 8.02068 13.9168C8.59758 14.4937 9.33258 14.8866 10.1328 15.0457C10.9329 15.2049 11.7623 15.1232 12.5161 14.811C13.2698 14.4988 13.9141 13.9701 14.3673 13.2917C14.8206 12.6134 15.0625 11.8158 15.0625 11C15.0614 9.90633 14.6264 8.85778 13.8531 8.08444C13.0797 7.3111 12.0312 6.87614 10.9375 6.875ZM10.9375 13.75C10.3936 13.75 9.86192 13.5887 9.40968 13.2865C8.95745 12.9844 8.60497 12.5549 8.39683 12.0524C8.18869 11.5499 8.13423 10.9969 8.24034 10.4635C8.34645 9.93005 8.60836 9.44005 8.99296 9.05546C9.37755 8.67086 9.86755 8.40895 10.401 8.30284C10.9344 8.19673 11.4874 8.25119 11.9899 8.45933C12.4924 8.66747 12.9219 9.01995 13.224 9.47218C13.5262 9.92442 13.6875 10.4561 13.6875 11C13.6875 11.7293 13.3978 12.4288 12.882 12.9445C12.3663 13.4603 11.6668 13.75 10.9375 13.75ZM15.0625 2.0625H6.8125C5.53656 2.06386 4.31328 2.57133 3.41106 3.47356C2.50883 4.37578 2.00136 5.59906 2 6.875V15.125C2.00136 16.4009 2.50883 17.6242 3.41106 18.5264C4.31328 19.4287 5.53656 19.9361 6.8125 19.9375H15.0625C16.3384 19.9361 17.5617 19.4287 18.4639 18.5264C19.3662 17.6242 19.8736 16.4009 19.875 15.125V6.875C19.8736 5.59906 19.3662 4.37578 18.4639 3.47356C17.5617 2.57133 16.3384 2.06386 15.0625 2.0625ZM18.5 15.125C18.5 16.0367 18.1378 16.911 17.4932 17.5557C16.8485 18.2003 15.9742 18.5625 15.0625 18.5625H6.8125C5.90082 18.5625 5.02648 18.2003 4.38182 17.5557C3.73716 16.911 3.375 16.0367 3.375 15.125V6.875C3.375 5.96332 3.73716 5.08898 4.38182 4.44432C5.02648 3.79966 5.90082 3.4375 6.8125 3.4375H15.0625C15.9742 3.4375 16.8485 3.79966 17.4932 4.44432C18.1378 5.08898 18.5 5.96332 18.5 6.875V15.125ZM16.4375 6.53125C16.4375 6.73521 16.377 6.93459 16.2637 7.10418C16.1504 7.27377 15.9893 7.40595 15.8009 7.484C15.6125 7.56205 15.4051 7.58248 15.2051 7.54269C15.005 7.50289 14.8213 7.40468 14.677 7.26045C14.5328 7.11623 14.4346 6.93248 14.3948 6.73244C14.355 6.53239 14.3754 6.32504 14.4535 6.13661C14.5316 5.94817 14.6637 5.78711 14.8333 5.6738C15.0029 5.56048 15.2023 5.5 15.4062 5.5C15.6798 5.5 15.9421 5.60865 16.1355 5.80205C16.3288 5.99544 16.4375 6.25775 16.4375 6.53125Z" fill="black"/>
</svg>
