<svg width="23" height="22" viewBox="0 0 23 22" fill="none" xmlns="http://www.w3.org/2000/svg">
<path d="M10.0719 14.025H8.60525V9.25925H10.0719V14.025ZM9.33858 8.64783C8.80967 8.64783 8.54475 8.40308 8.54475 7.9145C8.54311 7.81645 8.56275 7.71921 8.60231 7.62948C8.64187 7.53975 8.70042 7.45967 8.77392 7.39475C8.92677 7.25214 9.12961 7.17542 9.33858 7.18117C9.8675 7.18117 10.1324 7.42683 10.1324 7.91542C10.1324 8.404 9.86842 8.64783 9.33858 8.64783ZM15.5114 14.025H14.0145V11.3667C14.0145 10.6746 13.7688 10.3281 13.2803 10.3281C12.8934 10.3281 12.6395 10.5215 12.5158 10.9083C12.4763 10.9697 12.4553 11.0926 12.4553 11.275V14.025H10.9583V10.7864C10.9583 10.0531 10.9473 9.54433 10.9281 9.25925H12.2114L12.3031 9.9C12.6395 9.39033 13.1281 9.13642 13.8 9.13642C14.3106 9.13642 14.7222 9.31425 15.0375 9.67083C15.3547 10.0274 15.5123 10.5417 15.5123 11.2145V14.025H15.5114ZM11.875 19.25C7.32558 19.25 3.625 15.5494 3.625 11C3.625 6.45058 7.32558 2.75 11.875 2.75C16.4244 2.75 20.125 6.45058 20.125 11C20.125 15.5494 16.4244 19.25 11.875 19.25ZM11.875 4.58333C8.33758 4.58333 5.45833 7.46258 5.45833 11C5.45833 14.5374 8.33758 17.4167 11.875 17.4167C15.4124 17.4167 18.2917 14.5374 18.2917 11C18.2917 7.46258 15.4124 4.58333 11.875 4.58333Z" fill="black"/>
</svg>
