<svg width="23" height="22" viewBox="0 0 23 22" fill="none" xmlns="http://www.w3.org/2000/svg">
<g clip-path="url(#clip0_57_1115)">
<path d="M18.9464 3.14307H4.8035C3.06775 3.14307 1.66064 4.55017 1.66064 6.28592V15.7145C1.66064 17.4502 3.06775 18.8574 4.8035 18.8574H18.9464C20.6821 18.8574 22.0892 17.4502 22.0892 15.7145V6.28592C22.0892 4.55017 20.6821 3.14307 18.9464 3.14307Z" stroke="black" stroke-linecap="round" stroke-linejoin="round"/>
<path d="M9.21926 14.6459V8.04593C9.21598 7.9345 9.24315 7.82429 9.29786 7.72716C9.35256 7.63003 9.43272 7.54966 9.52971 7.4947C9.62669 7.43974 9.73683 7.41227 9.84827 7.41526C9.9597 7.41824 10.0682 7.45157 10.1621 7.51164L15.8193 10.8116C15.9138 10.8671 15.9922 10.9463 16.0466 11.0414C16.1011 11.1365 16.1297 11.2442 16.1297 11.3538C16.1297 11.4634 16.1011 11.5711 16.0466 11.6662C15.9922 11.7613 15.9138 11.8405 15.8193 11.8959L10.1621 15.1959C10.0661 15.2513 9.95723 15.2804 9.84641 15.2802C9.73559 15.2799 9.62681 15.2504 9.53109 15.1945C9.43536 15.1387 9.3561 15.0585 9.30134 14.9622C9.24658 14.8659 9.21826 14.7567 9.21926 14.6459Z" stroke="black" stroke-linecap="round" stroke-linejoin="round"/>
</g>
<defs>
<clipPath id="clip0_57_1115">
<rect width="22" height="22" fill="white" transform="translate(0.875)"/>
</clipPath>
</defs>
</svg>
